<?xml version="1.0" encoding="UTF-8" standalone="no"?>
<!-- Created with Inkscape (http://www.inkscape.org/) -->

<svg
   xmlns:dc="http://purl.org/dc/elements/1.1/"
   xmlns:cc="http://creativecommons.org/ns#"
   xmlns:rdf="http://www.w3.org/1999/02/22-rdf-syntax-ns#"
   xmlns:svg="http://www.w3.org/2000/svg"
   xmlns="http://www.w3.org/2000/svg"
   xmlns:sodipodi="http://sodipodi.sourceforge.net/DTD/sodipodi-0.dtd"
   xmlns:inkscape="http://www.inkscape.org/namespaces/inkscape"
   width="744.09448819"
   height="1052.3622047"
   id="svg2"
   version="1.1"
   inkscape:version="0.48.4 r9939"
   sodipodi:docname="yssing1.svg">
  <defs
     id="defs4" />
  <sodipodi:namedview
     id="base"
     pagecolor="#ffffff"
     bordercolor="#666666"
     borderopacity="1.0"
     inkscape:pageopacity="0.0"
     inkscape:pageshadow="2"
     inkscape:zoom="0.98994949"
     inkscape:cx="257.27418"
     inkscape:cy="782.63481"
     inkscape:document-units="px"
     inkscape:current-layer="layer1"
     showgrid="false"
     inkscape:window-width="1680"
     inkscape:window-height="988"
     inkscape:window-x="-8"
     inkscape:window-y="-8"
     inkscape:window-maximized="1" />
  <metadata
     id="metadata7">
    <rdf:RDF>
      <cc:Work
         rdf:about="">
        <dc:format>image/svg+xml</dc:format>
        <dc:type
           rdf:resource="http://purl.org/dc/dcmitype/StillImage" />
        <dc:title></dc:title>
      </cc:Work>
    </rdf:RDF>
  </metadata>
  <g
     inkscape:label="Layer 1"
     inkscape:groupmode="layer"
     id="layer1">
    <path
       style="fill:#007da3;fill-opacity:1;fill-rule:nonzero;stroke:none"
       d="m 294.93826,165.74749 c 36.69364,14.7853 21.17153,76.52322 -1.94084,99.52466 -23.11237,23.0015 -84.79363,38.19145 -99.40728,1.44386 -14.61367,-36.74756 64.65454,-115.75384 101.34814,-100.96855 z"
       id="path3755"
       inkscape:connector-curvature="0"
       sodipodi:nodetypes="zzzz" />
    <path
       style="fill:#00a5a3;fill-opacity:1;fill-rule:nonzero;stroke:none"
       d="m 206.65879,301.65277 c 0,0 76.32261,-13.55724 108.98981,0.38371 32.66722,13.94095 72.29855,74.91877 72.29855,74.91877 0,0 -78.0098,13.87846 -110.68639,-0.29078 -32.6766,-14.16927 -70.60197,-75.0117 -70.60197,-75.0117 z"
       id="path3757"
       inkscape:connector-curvature="0"
       sodipodi:nodetypes="czczc" />
    <path
       style="fill:#00cda3;fill-opacity:1;fill-rule:nonzero;stroke:none"
       d="m 329.61522,179.94732 c 0,0 -13.32381,73.19956 -0.1406,105.97099 13.15401,32.6988 73.3226,76.18369 73.3226,76.18369 0,0 13.89951,-77.98421 0.11709,-110.71192 -13.7824,-32.72775 -73.29909,-71.44276 -73.29909,-71.44276 z"
       id="path3757-1"
       inkscape:connector-curvature="0"
       sodipodi:nodetypes="caczc" />
  </g>
</svg>
